# xmcd
#
# Track frame offsets: 
#        150
#        130342
#        163070
#        183812
#        199715
#        206150
#
# Disc length: 3840 seconds
#
# Revision: 0
# Processed by: cddbd v1.5.2PL0 Copyright (c) Steve Scherf et al.
# Submitted via: ExactAudioCopy v0.95a5
#
DISCID=520efe06
DTITLE=龙音唱片 - 宋飞二胡独奏 长城
DYEAR=2006
DGENRE=A Cappella
TTITLE0=二胡协奏曲《长城随想》
TTITLE1=阳光照耀塔什库尔干
TTITLE2=烛影摇红
TTITLE3=听松
TTITLE4=野蜂飞舞
TTITLE5=第壹二胡协奏曲《红梅》
EXTD=
EXTT0=
EXTT1=
EXTT2=
EXTT3=
EXTT4=
EXTT5=
PLAYORDER=
